<svg xmlns="http://www.w3.org/2000/svg" width="38" height="24.933" viewBox="0 0 38 24.933"><path d="M76.821,5656.783v3.877A22.467,22.467,0,0,1,85,5662.185q.674.265,1.308.57a20.772,20.772,0,0,1,3.095-1.182,22.786,22.786,0,0,1,6.422-.912,22.454,22.454,0,0,1,8.21,1.524q.674.265,1.308.57a20.765,20.765,0,0,1,3.094-1.182,22.837,22.837,0,0,1,6.388-.912v-3.877Z" transform="translate(-76.821 -5656.783)" fill="#231815"/><path d="M125.661,5680.722a4.712,4.712,0,0,0,7.345,3.908,4.7,4.7,0,0,0,2.079-3.908,4.016,4.016,0,0,0-.3-1.481,6.474,6.474,0,0,0-.937-1.6,11.921,11.921,0,0,0-3.472-2.894,12.842,12.842,0,0,0-2.85,2.18,7.062,7.062,0,0,0-1.622,2.484A3.926,3.926,0,0,0,125.661,5680.722Z" transform="translate(-101.83 -5665.979)" fill="#231815"/><path d="M109.963,5672.7a9.529,9.529,0,0,1,2.171,3.376,6.4,6.4,0,0,1,.379,2.13,7.173,7.173,0,1,1-14.347,0,6.823,6.823,0,0,1,.823-3.148,10.692,10.692,0,0,1,2.166-2.794,14.852,14.852,0,0,1,1.553-1.272q-.563-.207-1.156-.384a20.326,20.326,0,0,0-5.732-.814,20.013,20.013,0,0,0-6.887,1.2,14.369,14.369,0,0,1,1.994,1.708,9.534,9.534,0,0,1,2.17,3.376,6.392,6.392,0,0,1,.379,2.13,7.174,7.174,0,1,1-14.347,0,6.822,6.822,0,0,1,.823-3.148,10.688,10.688,0,0,1,2.167-2.794,14.788,14.788,0,0,1,1.552-1.272c-.376-.138-.76-.266-1.155-.384a20.316,20.316,0,0,0-5.7-.814V5688.4h38v-18.612a20.028,20.028,0,0,0-6.852,1.2A14.34,14.34,0,0,1,109.963,5672.7Z" transform="translate(-76.821 -5663.47)" fill="#231815"/><path d="M86.591,5680.722a4.712,4.712,0,0,0,7.344,3.908,4.735,4.735,0,0,0,1.708-2.074,4.687,4.687,0,0,0,.37-1.833,4.025,4.025,0,0,0-.3-1.481,6.538,6.538,0,0,0-.937-1.6,11.921,11.921,0,0,0-3.472-2.894,12.827,12.827,0,0,0-2.85,2.18,7.069,7.069,0,0,0-1.622,2.484A3.925,3.925,0,0,0,86.591,5680.722Z" transform="translate(-81.844 -5665.979)" fill="#231815"/></svg>