<svg xmlns="http://www.w3.org/2000/svg" xmlns:xlink="http://www.w3.org/1999/xlink" width="110" height="32" viewBox="0 0 110 32"><defs><clipPath id="a"><rect width="110" height="32" transform="translate(8 8648)" fill="rgba(255,25,25,0.5)"/></clipPath></defs><g transform="translate(-8 -8648)" clip-path="url(#a)"><rect width="110" height="32" transform="translate(8 8648)" fill="rgba(255,25,25,0.5)" opacity="0"/><g transform="translate(-35 63.216)"><path d="M264.025,292.058a7,7,0,0,1-5.776-6.039,7.194,7.194,0,0,1,5.268-8.148,8.284,8.284,0,0,1,4.986.4,3.1,3.1,0,0,0,.463.208c.03,0,.055-1.613.055-3.585v-3.584l1.993.027,1.993.028.026,8.954.026,8.954-.53.269c-.292.147-.974.538-1.516.867a13.659,13.659,0,0,1-3.3,1.537A11.288,11.288,0,0,1,264.025,292.058Zm3.121-3.937a3.443,3.443,0,0,0,1.9-3.237,3.31,3.31,0,0,0-2.1-3.272,4.358,4.358,0,0,0-2.893.075,3.626,3.626,0,0,0-1.566,1.617,2.721,2.721,0,0,0-.281,1.58,2.893,2.893,0,0,0,.263,1.569,3.239,3.239,0,0,0,2.159,1.879A4.125,4.125,0,0,0,267.147,288.121Zm14.135,3.935a7.165,7.165,0,0,1-5.762-5.505,8.747,8.747,0,0,1,.054-3.462,7.185,7.185,0,0,1,5.215-5.222,10.6,10.6,0,0,1,3.857-.045,7.255,7.255,0,0,1,5.567,7.142,7.375,7.375,0,0,1-2.61,5.589,9.079,9.079,0,0,1-2.788,1.4A10.532,10.532,0,0,1,281.281,292.056Zm3-3.922a3.67,3.67,0,0,0,1.052-5.69,3.587,3.587,0,0,0-5.032-.066,4.4,4.4,0,0,0-.656.993,2.794,2.794,0,0,0-.279,1.564,2.74,2.74,0,0,0,.291,1.553,3.406,3.406,0,0,0,2.251,1.875A4.381,4.381,0,0,0,284.283,288.134Zm27.373,3.924a7.153,7.153,0,0,1-5.586-4.86,7.374,7.374,0,0,1,3.1-8.516,6.669,6.669,0,0,1,3.648-.99,6.8,6.8,0,0,1,3.827.744,5.627,5.627,0,0,1,1.776,1.289,6.835,6.835,0,0,1,2.141,4.815,7.161,7.161,0,0,1-5.222,7.355A9.824,9.824,0,0,1,311.656,292.058Zm2.915-3.878a3.762,3.762,0,0,0,1.733-1.758,4.058,4.058,0,0,0,.047-2.948,3.417,3.417,0,0,0-1.864-1.859,4.567,4.567,0,0,0-2.231-.154,3.415,3.415,0,0,0-2.379,2.284,3.53,3.53,0,0,0,2.327,4.59A4.4,4.4,0,0,0,314.571,288.179Zm37.753,3.876a6.993,6.993,0,0,1-3.784-1.976,6.768,6.768,0,0,1-1.747-2.758,5.413,5.413,0,0,1-.348-2.052,6.516,6.516,0,0,1,.734-3.647,6.967,6.967,0,0,1,6.649-3.953,6.881,6.881,0,0,1,5.511,2.292,7.185,7.185,0,0,1,1.915,5,7.347,7.347,0,0,1-2.611,5.589,9.075,9.075,0,0,1-2.788,1.4A10.529,10.529,0,0,1,352.324,292.056Zm3-3.924c3.045-1.427,2.394-6.286-.9-6.71a3.383,3.383,0,0,0-3.735,1.948,2.844,2.844,0,0,0-.283,1.564,2.659,2.659,0,0,0,.293,1.553,3.417,3.417,0,0,0,2.255,1.875A4.356,4.356,0,0,0,355.325,288.132Zm-57.266,3.761a7.152,7.152,0,0,1-4.9-3.253,7.632,7.632,0,0,1-.2-7.087,6.782,6.782,0,0,1,4.478-3.5,13.494,13.494,0,0,1,3.545-.262l2.75-.047V281.5h-1.993c-2.229,0-2.927.083-3.695.434A3,3,0,0,0,296.5,283.4a2.65,2.65,0,0,0-.281,1.532,2.415,2.415,0,0,0,.269,1.464,3.481,3.481,0,0,0,1.648,1.533c.6.282.61.284,3.1.317l2.5.033V292l-2.6-.012C299.707,291.98,298.322,291.938,298.059,291.893Zm24.775-4.764c.035-4.267.062-4.944.217-5.475a5.434,5.434,0,0,1,4-3.843,6.455,6.455,0,0,1,1.961-.118,7.029,7.029,0,0,1,3.726,1.03l.8.454.288-.205a10.972,10.972,0,0,1,2.622-1.148,10.312,10.312,0,0,1,3.558,0,5.423,5.423,0,0,1,3.423,2.637c.668,1.274.679,1.381.679,6.729V292h-3.936v-4.415c0-2.726-.04-4.559-.1-4.791a2.073,2.073,0,0,0-2.258-1.4,2.45,2.45,0,0,0-1.76.546c-.512.471-.518.539-.518,5.467V292h-4.036l0-4.566c0-4.215-.017-4.6-.188-4.97-.35-.763-.951-1.071-2.089-1.071a2.133,2.133,0,0,0-2.249,1.313,42.676,42.676,0,0,0-.115,4.819V292h-4.051Zm-46.75-13.542v-2.276h1.06l1.009,1.433,1.009,1.432.028-1.433.028-1.434h1v4.541h-1.071l-1-1.427-1-1.427-.05,1.4-.051,1.4-.479.031-.479.031Zm6.436.474-.028-1.791-.681-.03-.681-.03v-.9h3.835v.9l-.681.03-.681.03-.028,1.791-.028,1.791h-1Zm4.642,0-.028-1.791-.681-.03-.681-.03v-.9h3.835v.9l-.681.03-.681.03-.028,1.791-.027,1.791h-1Z" transform="translate(-212.153 8318.693)" fill="#be0031"/></g></g></svg>