<svg xmlns="http://www.w3.org/2000/svg" xmlns:xlink="http://www.w3.org/1999/xlink" width="110" height="32" viewBox="0 0 110 32"><defs><clipPath id="a"><rect width="110" height="32" transform="translate(131 8648)" fill="rgba(255,25,25,0.5)"/></clipPath></defs><g transform="translate(-131 -8648)" clip-path="url(#a)"><rect width="110" height="32" transform="translate(131 8648)" fill="rgba(255,25,25,0.5)" opacity="0"/><g transform="translate(68 -38.783)"><path d="M47.754,23.41h0Zm-27.6-6.692a12.135,12.135,0,0,1-1.544,3.52c-2.028,3.1-4.714,4.295-6.585,4.4-2.025-.1-2.238-1.294-1.42-4.346C13.43,9.747,19.787,7.363,22.829,6.737Zm46-4.84C63.437,16.03,60.313,20.4,57.768,22.8,56.1,24.371,52.587,26.605,54,21.334c.4-1.508,4.635-17.322,4.635-17.322-1.136,0-6.787-.306-8.676,6.741,0,0-1.2,4.475-1.709,6.361a11.973,11.973,0,0,1-1.43,3.123c-2.027,3.1-4.713,4.295-6.584,4.4h0c-1.1-.053-1.624-.443-1.814-1.232A8.473,8.473,0,0,1,38.81,20.3L43.167,4.012c-.607-.009-6.715-.57-8.676,6.741l-2.065,7.676A8.46,8.46,0,0,1,31.343,20.7c-1.324,1.906-3.676,3.938-4.922,3.938-.888,0-1.24-1.018-.628-3.307L30.428,4.013H28.373C21.1,4.013,15.926,5.184,12.078,7.7,5.625,11.911,4,20.254,4,21.97c0,1.831.564,5.662,6.917,5.662a11.141,11.141,0,0,0,8.445-4l.192-.222a5.265,5.265,0,0,0,1.126,2.68,5.356,5.356,0,0,0,3.939,1.545c3.346,0,6.2-2.244,7.724-4.22l0,.006c.394,1.893,1.83,4.216,6.778,4.216a11.135,11.135,0,0,0,8.444-4c.064-.073.128-.145.19-.219a5.262,5.262,0,0,0,1.126,2.675l.072.078.021.022a5.625,5.625,0,0,0,3.789,1.444c2.874,0,5.706-1.644,8.091-4.16a106.325,106.325,0,0,0,8.8-11.593" transform="translate(81.004 8686.001)" fill="#ea5404"/></g></g></svg>